<?xml version="1.0" encoding="UTF-8" standalone="no"?>
<!-- Created with Inkscape (http://www.inkscape.org/) -->

<svg
   xmlns:dc="http://purl.org/dc/elements/1.1/"
   xmlns:cc="http://creativecommons.org/ns#"
   xmlns:rdf="http://www.w3.org/1999/02/22-rdf-syntax-ns#"
   xmlns:svg="http://www.w3.org/2000/svg"
   xmlns="http://www.w3.org/2000/svg"
   xmlns:sodipodi="http://sodipodi.sourceforge.net/DTD/sodipodi-0.dtd"
   xmlns:inkscape="http://www.inkscape.org/namespaces/inkscape"
   width="512"
   height="512"
   viewBox="0 0 135.46666 135.46667"
   version="1.1"
   id="svg8"
   inkscape:version="0.92.4 (5da689c313, 2019-01-14)"
   sodipodi:docname="icon-m-stop.svg"
   inkscape:export-xdpi="24"
   inkscape:export-ydpi="24">
  <defs
     id="defs2">
	
	
	

	
	

		
		
	</defs>
  <sodipodi:namedview
     id="base"
     pagecolor="#000000"
     bordercolor="#666666"
     borderopacity="1.0"
     inkscape:pageopacity="0"
     inkscape:pageshadow="2"
     inkscape:zoom="0.70710678"
     inkscape:cx="65.977119"
     inkscape:cy="162.98194"
     inkscape:document-units="mm"
     inkscape:current-layer="layer1"
     showgrid="false"
     units="px"
     inkscape:pagecheckerboard="false"
     inkscape:window-width="1920"
     inkscape:window-height="1136"
     inkscape:window-x="0"
     inkscape:window-y="27"
     inkscape:window-maximized="1"
     inkscape:snap-object-midpoints="true" />
  <metadata
     id="metadata5">
    <rdf:RDF>
      <cc:Work
         rdf:about="">
        <dc:format>image/svg+xml</dc:format>
        <dc:type
           rdf:resource="http://purl.org/dc/dcmitype/StillImage" />
        <dc:title></dc:title>
      </cc:Work>
    </rdf:RDF>
  </metadata>
  <g
     inkscape:label="Calque 1"
     inkscape:groupmode="layer"
     id="layer1"
     transform="translate(0,-161.53332)">
    <circle
       style="opacity:0.15;fill:#ffffff;stroke-width:1.41111112"
       cx="67.73333"
       cy="229.26807"
       r="62.08889"
       id="circle963" />
    <g
       id="g971"
       transform="matrix(1.4111111,0,0,1.4111111,5.3333331e-7,161.53332)">
		<g
   style="opacity:0.6"
   id="g967">
			<path
   inkscape:connector-curvature="0"
   style="fill:#ffffff"
   d="m 68.996,70.002 c -0.256,0 -0.512,-0.098 -0.707,-0.293 L 53.292,54.708 c -3.698,-3.699 -3.697,-9.717 10e-4,-13.415 l 15,-15.002 c 0.391,-0.391 1.023,-0.391 1.414,0 0.391,0.39 0.391,1.023 0,1.414 l -15,15.002 c -2.919,2.918 -2.919,7.668 -10e-4,10.587 l 14.997,15.001 c 0.391,0.391 0.391,1.023 0,1.414 -0.195,0.195 -0.451,0.293 -0.707,0.293 z"
   id="path965" />

		</g>

		<path
   inkscape:connector-curvature="0"
   style="fill:#ffffff"
   d="m 27,70 c -0.256,0 -0.512,-0.098 -0.707,-0.293 -0.391,-0.391 -0.391,-1.023 0,-1.414 l 15,-14.998 c 2.918,-2.919 2.919,-7.667 0,-10.586 l -15,-15.001 c -0.391,-0.391 -0.391,-1.023 0,-1.414 0.391,-0.391 1.023,-0.391 1.414,0 l 15,15.001 c 3.698,3.698 3.698,9.716 0,13.414 l -15,14.998 C 27.512,69.902 27.256,70 27,70 Z"
   id="path969" />

	</g>
    <rect
       y="161.53333"
       x="5.3333332e-07"
       id="icon-l-clear_3_"
       style="opacity:0;fill:#ffffff;stroke-width:1.41111112"
       width="135.46666"
       height="135.46666" />
    <rect
       y="161.53333"
       x="-1.0666668e-06"
       id="icon-m-media-playlists_1_"
       style="opacity:0;fill:#ffffff;stroke-width:2.11666679"
       width="135.46667"
       height="135.46667" />
    <g
       id="g994"
       style="opacity:0.6"
       transform="matrix(2.1166667,0,0,2.1166667,-1.0666667e-6,161.53332)">
			<path
   id="path992"
   d="M 51,55 H 13 C 10.794,55 9,53.206 9,51 V 13 c 0,-2.206 1.794,-4 4,-4 h 38 c 2.206,0 4,1.794 4,4 v 38 c 0,2.206 -1.794,4 -4,4 z M 13,11 c -1.103,0 -2,0.897 -2,2 v 38 c 0,1.103 0.897,2 2,2 h 38 c 1.103,0 2,-0.897 2,-2 V 13 c 0,-1.103 -0.897,-2 -2,-2 z"
   style="fill:#ffffff"
   inkscape:connector-curvature="0" />

		</g>
    <g
       id="icon-m-reset"
       transform="matrix(2.1166667,0,0,2.1166667,-137.52936,161.53389)">
	<rect
   height="64"
   width="64"
   style="opacity:0;fill:#ffffff"
   id="icon-m-reset_1_"
   x="0"
   y="0" />

	<g
   id="g1019">
		<g
   id="g1015"
   style="opacity:0.6">
			<path
   id="path1013"
   d="m 52.197,53.202 c -0.256,0 -0.512,-0.098 -0.707,-0.293 L 35.735,37.152 c -2.729,-2.73 -2.729,-7.171 10e-4,-9.899 L 51.495,11.495 c 0.391,-0.391 1.023,-0.391 1.414,0 0.391,0.391 0.391,1.023 0,1.414 L 37.15,28.667 c -1.95,1.949 -1.95,5.121 -10e-4,7.071 l 15.755,15.757 c 0.391,0.391 0.391,1.023 0,1.414 -0.195,0.195 -0.451,0.293 -0.707,0.293 z"
   style="fill:#ffffff"
   inkscape:connector-curvature="0" />

		</g>

		<path
   id="path1017"
   d="m 12.202,53.202 c -0.256,0 -0.512,-0.098 -0.707,-0.293 -0.391,-0.391 -0.391,-1.023 0,-1.414 L 27.25,35.738 c 1.949,-1.95 1.949,-5.122 0,-7.072 L 11.495,12.909 c -0.391,-0.391 -0.391,-1.023 0,-1.414 0.391,-0.391 1.023,-0.391 1.414,0 l 15.755,15.757 c 2.729,2.729 2.729,7.17 0,9.9 L 12.909,52.909 c -0.195,0.195 -0.451,0.293 -0.707,0.293 z"
   style="fill:#ffffff"
   inkscape:connector-curvature="0" />

	</g>

</g>
  </g>
</svg>
