<?xml version="1.0" encoding="UTF-8" standalone="no"?>
<svg
   xmlns:dc="http://purl.org/dc/elements/1.1/"
   xmlns:cc="http://creativecommons.org/ns#"
   xmlns:rdf="http://www.w3.org/1999/02/22-rdf-syntax-ns#"
   xmlns:svg="http://www.w3.org/2000/svg"
   xmlns="http://www.w3.org/2000/svg"
   xmlns:sodipodi="http://sodipodi.sourceforge.net/DTD/sodipodi-0.dtd"
   xmlns:inkscape="http://www.inkscape.org/namespaces/inkscape"
   inkscape:export-ydpi="24"
   inkscape:export-xdpi="24"
   sodipodi:docname="icon-m-movie.svg"
   inkscape:version="1.0 (4035a4fb49, 2020-05-01)"
   id="svg8"
   version="1.1"
   viewBox="0 0 135.46666 135.46667"
   height="512"
   width="512">
  <defs
     id="defs2" />
  <sodipodi:namedview
     inkscape:document-rotation="0"
     inkscape:window-maximized="1"
     inkscape:window-y="34"
     inkscape:window-x="0"
     inkscape:window-height="1009"
     inkscape:window-width="1920"
     inkscape:pagecheckerboard="false"
     units="px"
     showgrid="false"
     inkscape:current-layer="layer1"
     inkscape:document-units="mm"
     inkscape:cy="191.47573"
     inkscape:cx="-58.06173"
     inkscape:zoom="1"
     inkscape:pageshadow="2"
     inkscape:pageopacity="0"
     borderopacity="1.0"
     bordercolor="#666666"
     pagecolor="#000000"
     id="base" />
  <metadata
     id="metadata5">
    <rdf:RDF>
      <cc:Work
         rdf:about="">
        <dc:format>image/svg+xml</dc:format>
        <dc:type
           rdf:resource="http://purl.org/dc/dcmitype/StillImage" />
        <dc:title />
      </cc:Work>
    </rdf:RDF>
  </metadata>
  <g
     transform="translate(0,-161.53332)"
     id="layer1"
     inkscape:groupmode="layer"
     inkscape:label="Calque 1">
    <path
       inkscape:connector-curvature="0"
       id="rect4524"
       transform="matrix(0.26458333,0,0,0.26458333,0,161.53332)"
       d="m 77.660156,67.507812 c -9.971999,0 -18,8.028015 -18,18 V 426.49219 c 0,9.972 8.028001,18 18,18 H 434.33984 c 9.972,0 18,-8.028 18,-18 V 85.507812 c 0,-9.971985 -8.028,-17.999997 -18,-18 z m -0.15625,13.25 H 149.80273 V 129.17188 H 77.503906 Z m 284.693364,0 h 72.29882 v 48.414068 h -72.29882 z m -197.89454,0.002 H 347.69727 V 189.58594 H 164.30273 Z M 77.503906,141.17188 h 72.298824 v 48.41406 H 77.503906 Z m 284.693364,0 h 72.29882 v 48.41406 H 362.19727 Z M 77.503906,201.58594 H 149.80273 V 250 H 77.503906 Z m 86.798824,0 H 347.69727 V 310.41406 H 164.30273 Z m 197.89454,0 h 72.29882 V 250 H 362.19727 Z M 77.503906,262 h 72.298824 v 48.41406 H 77.503906 Z m 284.693364,0 h 72.29882 v 48.41406 H 362.19727 Z M 77.503906,322.41406 h 72.298824 v 48.41406 H 77.503906 Z m 86.798824,0 H 347.69727 V 431.24023 H 164.30273 Z m 197.89454,0 h 72.29882 v 48.41406 H 362.19727 Z M 77.503906,382.82812 h 72.298824 v 48.41407 H 77.503906 Z m 284.693364,0 h 72.29882 v 48.41407 h -72.29882 z"
       style="display:inline;fill:#ffffff;fill-opacity:1;stroke:none;stroke-width:38.8035202;stroke-linecap:round;stroke-linejoin:round;stroke-miterlimit:4;stroke-dasharray:none;stroke-opacity:1;paint-order:stroke fill markers" />
    <rect
       y="182.90076"
       x="42.942692"
       height="28.793915"
       width="48.522945"
       id="rect4621-2"
       style="fill:#ffffff;fill-opacity:0.20392157;stroke:none;stroke-width:8.81876;stroke-linecap:round;stroke-linejoin:round;stroke-miterlimit:4;stroke-dasharray:none;stroke-opacity:1;paint-order:stroke fill markers" />
    <rect
       y="214.86969"
       x="43.471859"
       height="28.793915"
       width="48.522945"
       id="rect4621-6-6"
       style="fill:#ffffff;fill-opacity:0.20392157;stroke:none;stroke-width:8.81876183;stroke-linecap:round;stroke-linejoin:round;stroke-miterlimit:4;stroke-dasharray:none;stroke-opacity:1;paint-order:stroke fill markers" />
    <rect
       y="246.83862"
       x="43.471859"
       height="28.793915"
       width="48.522945"
       id="rect4621-0-1"
       style="fill:#ffffff;fill-opacity:0.20392157;stroke:none;stroke-width:8.81876183;stroke-linecap:round;stroke-linejoin:round;stroke-miterlimit:4;stroke-dasharray:none;stroke-opacity:1;paint-order:stroke fill markers" />
  </g>
</svg>
