<?xml version="1.0" encoding="UTF-8" standalone="no"?>
<svg
   xmlns:dc="http://purl.org/dc/elements/1.1/"
   xmlns:cc="http://creativecommons.org/ns#"
   xmlns:rdf="http://www.w3.org/1999/02/22-rdf-syntax-ns#"
   xmlns:svg="http://www.w3.org/2000/svg"
   xmlns="http://www.w3.org/2000/svg"
   xmlns:sodipodi="http://sodipodi.sourceforge.net/DTD/sodipodi-0.dtd"
   xmlns:inkscape="http://www.inkscape.org/namespaces/inkscape"
   inkscape:export-ydpi="24"
   inkscape:export-xdpi="24"
   sodipodi:docname="icon-m-recently-added (retest).svg"
   inkscape:version="0.92.4 (5da689c313, 2019-01-14)"
   id="svg8"
   version="1.1"
   viewBox="0 0 135.46666 135.46667"
   height="512"
   width="512">
  <defs
     id="defs2" />
  <sodipodi:namedview
     inkscape:document-rotation="0"
     inkscape:snap-midpoints="true"
     inkscape:snap-others="true"
     inkscape:snap-object-midpoints="true"
     showguides="true"
     inkscape:window-maximized="1"
     inkscape:window-y="27"
     inkscape:window-x="0"
     inkscape:window-height="1136"
     inkscape:window-width="1920"
     inkscape:pagecheckerboard="false"
     units="px"
     showgrid="false"
     inkscape:current-layer="layer3"
     inkscape:document-units="mm"
     inkscape:cy="223.81556"
     inkscape:cx="112.17871"
     inkscape:zoom="1.0847791"
     inkscape:pageshadow="2"
     inkscape:pageopacity="0"
     borderopacity="1.0"
     bordercolor="#666666"
     pagecolor="#000000"
     id="base">
    <inkscape:grid
       id="grid3794"
       type="xygrid" />
  </sodipodi:namedview>
  <metadata
     id="metadata5">
    <rdf:RDF>
      <cc:Work
         rdf:about="">
        <dc:format>image/svg+xml</dc:format>
        <dc:type
           rdf:resource="http://purl.org/dc/dcmitype/StillImage" />
        <dc:title />
      </cc:Work>
    </rdf:RDF>
  </metadata>
  <g
     style="display:none"
     transform="translate(0,-161.53332)"
     id="layer1"
     inkscape:groupmode="layer"
     inkscape:label="Calque 1">
    <path
       transform="matrix(0.26458333,0,0,0.26458333,0,161.53332)"
       inkscape:connector-curvature="0"
       id="rect4524"
       d="m 77.660156,67.507812 c -9.971999,0 -18,8.028015 -18,18 V 426.49219 c 0,9.972 8.028001,18 18,18 H 434.33984 c 9.972,0 18,-8.028 18,-18 V 85.507812 c 0,-9.971985 -8.028,-17.999997 -18,-18 z m -0.15625,13.25 H 149.80273 V 129.17188 H 77.503906 Z m 284.693364,0 h 72.29882 v 48.414068 h -72.29882 z m -197.89454,0.002 H 347.69727 V 189.58594 H 164.30273 Z M 77.503906,141.17188 h 72.298824 v 48.41406 H 77.503906 Z m 284.693364,0 h 72.29882 v 48.41406 H 362.19727 Z M 77.503906,201.58594 H 149.80273 V 250 H 77.503906 Z m 86.798824,0 H 347.69727 V 310.41406 H 164.30273 Z m 197.89454,0 h 72.29882 V 250 H 362.19727 Z M 77.503906,262 h 72.298824 v 48.41406 H 77.503906 Z m 284.693364,0 h 72.29882 v 48.41406 H 362.19727 Z M 77.503906,322.41406 h 72.298824 v 48.41406 H 77.503906 Z m 86.798824,0 H 347.69727 V 431.24023 H 164.30273 Z m 197.89454,0 h 72.29882 v 48.41406 H 362.19727 Z M 77.503906,382.82812 h 72.298824 v 48.41407 H 77.503906 Z m 284.693364,0 h 72.29882 v 48.41407 h -72.29882 z"
       style="display:inline;fill:#ffffff;fill-opacity:1;stroke:none;stroke-width:38.8035202;stroke-linecap:round;stroke-linejoin:round;stroke-miterlimit:4;stroke-dasharray:none;stroke-opacity:1;paint-order:stroke fill markers" />
    <rect
       y="182.90076"
       x="43.471859"
       height="28.793915"
       width="48.522945"
       id="rect4621-2"
       style="fill:#ffffff;fill-opacity:0.50196078;stroke:none;stroke-width:8.81876183;stroke-linecap:round;stroke-linejoin:round;stroke-miterlimit:4;stroke-dasharray:none;stroke-opacity:1;paint-order:stroke fill markers" />
    <rect
       y="214.86969"
       x="43.471859"
       height="28.793915"
       width="48.522945"
       id="rect4621-6-6"
       style="fill:#ffffff;fill-opacity:0.50196078;stroke:none;stroke-width:8.81876183;stroke-linecap:round;stroke-linejoin:round;stroke-miterlimit:4;stroke-dasharray:none;stroke-opacity:1;paint-order:stroke fill markers" />
    <rect
       y="246.83862"
       x="43.471859"
       height="28.793915"
       width="48.522945"
       id="rect4621-0-1"
       style="fill:#ffffff;fill-opacity:0.50196078;stroke:none;stroke-width:8.81876183;stroke-linecap:round;stroke-linejoin:round;stroke-miterlimit:4;stroke-dasharray:none;stroke-opacity:1;paint-order:stroke fill markers" />
  </g>
  <g
     style="display:inline"
     inkscape:label="Calque 2"
     id="layer3"
     inkscape:groupmode="layer">
    <g
       style="display:none"
       transform="translate(-146.20495,-86.007991)"
       id="layer1-5"
       inkscape:label="Calque 1">
      <path
         transform="matrix(0.26458333,0,0,0.26458333,0,161.53332)"
         inkscape:connector-curvature="0"
         id="rect4524-6"
         d="m 77.660156,67.507812 c -9.971999,0 -18,8.028015 -18,18 V 426.49219 c 0,9.972 8.028001,18 18,18 H 434.33984 c 9.972,0 18,-8.028 18,-18 V 85.507812 c 0,-9.971985 -8.028,-17.999997 -18,-18 z m -0.15625,13.25 H 149.80273 V 129.17188 H 77.503906 Z m 284.693364,0 h 72.29882 v 48.414068 h -72.29882 z m -197.89454,0.002 H 347.69727 V 189.58594 H 164.30273 Z M 77.503906,141.17188 h 72.298824 v 48.41406 H 77.503906 Z m 284.693364,0 h 72.29882 v 48.41406 H 362.19727 Z M 77.503906,201.58594 H 149.80273 V 250 H 77.503906 Z m 86.798824,0 H 347.69727 V 310.41406 H 164.30273 Z m 197.89454,0 h 72.29882 V 250 H 362.19727 Z M 77.503906,262 h 72.298824 v 48.41406 H 77.503906 Z m 284.693364,0 h 72.29882 v 48.41406 H 362.19727 Z M 77.503906,322.41406 h 72.298824 v 48.41406 H 77.503906 Z m 86.798824,0 H 347.69727 V 431.24023 H 164.30273 Z m 197.89454,0 h 72.29882 v 48.41406 H 362.19727 Z M 77.503906,382.82812 h 72.298824 v 48.41407 H 77.503906 Z m 284.693364,0 h 72.29882 v 48.41407 h -72.29882 z"
         style="display:inline;fill:#ffffff;fill-opacity:1;stroke:none;stroke-width:38.8035202;stroke-linecap:round;stroke-linejoin:round;stroke-miterlimit:4;stroke-dasharray:none;stroke-opacity:1;paint-order:stroke fill markers" />
      <rect
         y="182.90076"
         x="43.471859"
         height="28.793915"
         width="48.522945"
         id="rect4621-2-2"
         style="fill:#ffffff;fill-opacity:0.50196078;stroke:none;stroke-width:8.81876183;stroke-linecap:round;stroke-linejoin:round;stroke-miterlimit:4;stroke-dasharray:none;stroke-opacity:1;paint-order:stroke fill markers" />
      <rect
         y="214.86969"
         x="43.471859"
         height="28.793915"
         width="48.522945"
         id="rect4621-6-6-9"
         style="fill:#ffffff;fill-opacity:0.50196078;stroke:none;stroke-width:8.81876183;stroke-linecap:round;stroke-linejoin:round;stroke-miterlimit:4;stroke-dasharray:none;stroke-opacity:1;paint-order:stroke fill markers" />
      <rect
         y="246.83862"
         x="43.471859"
         height="28.793915"
         width="48.522945"
         id="rect4621-0-1-1"
         style="fill:#ffffff;fill-opacity:0.50196078;stroke:none;stroke-width:8.81876183;stroke-linecap:round;stroke-linejoin:round;stroke-miterlimit:4;stroke-dasharray:none;stroke-opacity:1;paint-order:stroke fill markers" />
    </g>
    <g
       id="layer4"
       inkscape:label="Calque 3"
       style="display:none"
       transform="translate(-11.88252,101.72498)">
      <g
         id="g9110"
         transform="matrix(1.2756073,0,0,1.4831506,-46.228792,2.7154317)"
         style="opacity:0.8">
        <rect
           y="62.898033"
           x="34.468258"
           height="25.137266"
           width="31.441122"
           id="rect9084"
           style="fill:#fffffe;fill-opacity:1;stroke:#ffffff;stroke-width:7.3392601;stroke-linejoin:round;stroke-miterlimit:4;stroke-dasharray:none;stroke-opacity:1" />
        <rect
           style="fill:#fffffe;fill-opacity:1;stroke:#ffffff;stroke-width:7.3392601;stroke-linejoin:round;stroke-miterlimit:4;stroke-dasharray:none;stroke-opacity:1"
           id="rect9086"
           width="31.441122"
           height="25.137266"
           x="73.590622"
           y="62.898033" />
        <rect
           style="fill:#fffffe;fill-opacity:1;stroke:#ffffff;stroke-width:7.3392601;stroke-linejoin:round;stroke-miterlimit:4;stroke-dasharray:none;stroke-opacity:1"
           id="rect9086-3"
           width="31.441122"
           height="25.137266"
           x="112.76963"
           y="62.89777" />
      </g>
    </g>
    <g
       style="display:none"
       transform="translate(2.2252891e-7,-164.79431)"
       id="layer1-56"
       inkscape:label="Calque 1">
      <path
         transform="matrix(0.26458333,0,0,0.26458333,0,161.53332)"
         inkscape:connector-curvature="0"
         id="rect4524-2"
         d="m 77.660156,67.507812 c -9.971999,0 -18,8.028015 -18,18 V 426.49219 c 0,9.972 8.028001,18 18,18 H 434.33984 c 9.972,0 18,-8.028 18,-18 V 85.507812 c 0,-9.971985 -8.028,-17.999997 -18,-18 z m -0.15625,13.25 H 149.80273 V 129.17188 H 77.503906 Z m 284.693364,0 h 72.29882 v 48.414068 h -72.29882 z m -197.89454,0.002 H 347.69727 V 189.58594 H 164.30273 Z M 77.503906,141.17188 h 72.298824 v 48.41406 H 77.503906 Z m 284.693364,0 h 72.29882 v 48.41406 H 362.19727 Z M 77.503906,201.58594 H 149.80273 V 250 H 77.503906 Z m 86.798824,0 H 347.69727 V 310.41406 H 164.30273 Z m 197.89454,0 h 72.29882 V 250 H 362.19727 Z M 77.503906,262 h 72.298824 v 48.41406 H 77.503906 Z m 284.693364,0 h 72.29882 v 48.41406 H 362.19727 Z M 77.503906,322.41406 h 72.298824 v 48.41406 H 77.503906 Z m 86.798824,0 H 347.69727 V 431.24023 H 164.30273 Z m 197.89454,0 h 72.29882 v 48.41406 H 362.19727 Z M 77.503906,382.82812 h 72.298824 v 48.41407 H 77.503906 Z m 284.693364,0 h 72.29882 v 48.41407 h -72.29882 z"
         style="display:inline;fill:#ffffff;fill-opacity:1;stroke:none;stroke-width:38.8035202;stroke-linecap:round;stroke-linejoin:round;stroke-miterlimit:4;stroke-dasharray:none;stroke-opacity:1;paint-order:stroke fill markers" />
      <rect
         y="182.90076"
         x="43.471859"
         height="28.793915"
         width="48.522945"
         id="rect4621-2-9"
         style="fill:#ffffff;fill-opacity:0.50196078;stroke:none;stroke-width:8.81876183;stroke-linecap:round;stroke-linejoin:round;stroke-miterlimit:4;stroke-dasharray:none;stroke-opacity:1;paint-order:stroke fill markers" />
      <rect
         y="214.86969"
         x="43.471859"
         height="28.793915"
         width="48.522945"
         id="rect4621-6-6-1"
         style="fill:#ffffff;fill-opacity:0.50196078;stroke:none;stroke-width:8.81876183;stroke-linecap:round;stroke-linejoin:round;stroke-miterlimit:4;stroke-dasharray:none;stroke-opacity:1;paint-order:stroke fill markers" />
      <rect
         y="246.83862"
         x="43.471859"
         height="28.793915"
         width="48.522945"
         id="rect4621-0-1-2"
         style="fill:#ffffff;fill-opacity:0.50196078;stroke:none;stroke-width:8.81876183;stroke-linecap:round;stroke-linejoin:round;stroke-miterlimit:4;stroke-dasharray:none;stroke-opacity:1;paint-order:stroke fill markers" />
    </g>
    <path
       d="m 19.861416,-91.129936 a 49.393368,49.393368 0 0 1 -36.609424,47.710329 49.393368,49.393368 0 0 1 -55.559856,-23.013646 49.393368,49.393368 0 0 1 7.849528,-59.623067 49.393368,49.393368 0 0 1 59.6230699,-7.84953"
       transform="rotate(152.95911)"
       sodipodi:open="true"
       sodipodi:arc-type="arc"
       sodipodi:end="5.2359878"
       sodipodi:start="0"
       sodipodi:ry="49.393368"
       sodipodi:rx="49.393368"
       sodipodi:cy="-91.129936"
       sodipodi:cx="-29.531952"
       sodipodi:type="arc"
       id="path927"
       style="opacity:0.6;fill:none;fill-opacity:1;stroke:#ffffff;stroke-width:6.61458015;stroke-linecap:round;stroke-miterlimit:4;stroke-dasharray:none;stroke-opacity:1" />
    <path
       style="fill:#ffffff;fill-opacity:1;stroke:#ffffff;stroke-width:5.29167;stroke-linecap:round;stroke-linejoin:miter;stroke-miterlimit:4;stroke-dasharray:none;stroke-opacity:1"
       d="M 67.733333,43.755828 V 91.710839"
       id="path955" />
    <path
       style="display:inline;fill:#ffffff;fill-opacity:1;stroke:#ffffff;stroke-width:5.29167;stroke-linecap:round;stroke-linejoin:miter;stroke-miterlimit:4;stroke-dasharray:none;stroke-opacity:1"
       d="M 91.710838,67.733333 H 43.755828"
       id="path955-3" />
    <rect
       y="11.149627"
       x="-148.46829"
       id="icon-m-repeat_1_"
       style="opacity:0;fill:#ffffff;stroke-width:2.11666679"
       width="135.46667"
       height="135.46667" />
    <g
       id="XMLID_13_"
       transform="matrix(0.8009532,1.3872916,-1.3872916,0.8009532,28.508276,40.339648)"
       style="stroke:#ffffff;stroke-width:0.93638432;stroke-miterlimit:4;stroke-dasharray:none;stroke-opacity:1">
      <path
         inkscape:connector-curvature="0"
         style="fill:#ffffff;stroke:#ffffff;stroke-width:0.93638432;stroke-miterlimit:4;stroke-dasharray:none;stroke-opacity:1"
         d="m 26.712,28.681 c -0.264,0 -0.519,-0.058 -0.754,-0.176 -0.65,-0.325 -1.022,-1.038 -1.022,-1.955 V 9.671 c 0,-0.917 0.373,-1.629 1.022,-1.955 0.649,-0.326 1.444,-0.196 2.178,0.354 l 10.72,8.041 c 0.674,0.505 1.061,1.234 1.061,2 0,0.766 -0.387,1.494 -1.061,2 l -10.72,8.04 c -0.468,0.35 -0.96,0.53 -1.424,0.53 z m 0.224,-19.01 v 16.88 c 0,0 0,0 0,0 v 0 l 10.72,-8.04 c 0.167,-0.126 0.26,-0.268 0.26,-0.4 0,-0.132 -0.093,-0.274 -0.261,-0.4 z"
         id="path861" />
    </g>
  </g>
</svg>
